{"asset":{"version":"2.0","generator":"Blockbench 4.6.5 glTF exporter"},"scenes":[{"nodes":[4],"name":"blockbench_export"}],"scene":0,"nodes":[{"name":"rocket","mesh":0},{"name":"Surface","mesh":1},{"name":"Surface.002","mesh":2},{"name":"Surface.003","mesh":3},{"children":[0,1,2,3]}],"bufferViews":[{"buffer":0,"byteOffset":0,"byteLength":5760,"target":34962,"byteStride":12},{"buffer":0,"byteOffset":5760,"byteLength":5760,"target":34962,"byteStride":12},{"buffer":0,"byteOffset":11520,"byteLength":3840,"target":34962,"byteStride":8},{"buffer":0,"byteOffset":15360,"byteLength":1404,"target":34963},{"buffer":0,"byteOffset":16764,"byteLength":10752,"target":34962,"byteStride":12},{"buffer":0,"byteOffset":27516,"byteLength":10752,"target":34962,"byteStride":12},{"buffer":0,"byteOffset":38268,"byteLength":7168,"target":34962,"byteStride":8},{"buffer":0,"byteOffset":45436,"byteLength":2688,"target":34963},{"buffer":0,"byteOffset":48124,"byteLength":10752,"target":34962,"byteStride":12},{"buffer":0,"byteOffset":58876,"byteLength":10752,"target":34962,"byteStride":12},{"buffer":0,"byteOffset":69628,"byteLength":7168,"target":34962,"byteStride":8},{"buffer":0,"byteOffset":76796,"byteLength":2688,"target":34963},{"buffer":0,"byteOffset":79484,"byteLength":10752,"target":34962,"byteStride":12},{"buffer":0,"byteOffset":90236,"byteLength":10752,"target":34962,"byteStride":12},{"buffer":0,"byteOffset":100988,"byteLength":7168,"target":34962,"byteStride":8},{"buffer":0,"byteOffset":108156,"byteLength":2688,"target":34963}],"buffers":[{"byteLength":110844,"uri":"data:application/octet-stream;base64,"}],"accessors":[{"bufferView":0,"componentType":5126,"count":480,"max":[6.726069927215576,56.753334045410156,5.948369979858398],"min":[-4.331600189208984,-0.003599999938160181,-5.94734001159668],"type":"VEC3"},{"bufferView":1,"componentType":5126,"count":480,"max":[0.9998435974121094,1,1],"min":[-0.9686079621315002,-1,-1],"type":"VEC3"},{"bufferView":2,"componentType":5126,"count":480,"max":[0.3798828125,1],"min":[0.00005737304672948085,0.3668082356452942],"type":"VEC2"},{"bufferView":3,"componentType":5123,"count":702,"max":[479],"min":[0],"type":"SCALAR"},{"bufferView":4,"componentType":5126,"count":896,"max":[4,41,4],"min":[-4,39,-4],"type":"VEC3"},{"bufferView":5,"componentType":5126,"count":896,"max":[0.9958176612854004,0.0000034853649140131893,0.9958176612854004],"min":[-0.9958176612854004,-0.000003363736823303043,-0.9958176612854004],"type":"VEC3"},{"bufferView":6,"componentType":5126,"count":896,"max":[0.7890625,1],"min":[0,8.881784197001252e-16],"type":"VEC2"},{"bufferView":7,"componentType":5123,"count":1344,"max":[895],"min":[0],"type":"SCALAR"},{"bufferView":8,"componentType":5126,"count":896,"max":[5,21,5],"min":[-5,19,-5],"type":"VEC3"},{"bufferView":9,"componentType":5126,"count":896,"max":[0.9958176016807556,0.000004717699084721971,0.9958176016807556],"min":[-0.9958176016807556,-0.000004923408141621621,-0.9958176016807556],"type":"VEC3"},{"bufferView":10,"componentType":5126,"count":896,"max":[0.4921875,1],"min":[0,0.48828086256980896],"type":"VEC2"},{"bufferView":11,"componentType":5123,"count":1344,"max":[895],"min":[0],"type":"SCALAR"},{"bufferView":12,"componentType":5126,"count":896,"max":[6,13,6],"min":[-6,11,-6],"type":"VEC3"},{"bufferView":13,"componentType":5126,"count":896,"max":[0.9958176612854004,0.0000033637145406828495,0.9958176612854004],"min":[-0.9958176612854004,-0.000004923424967273604,-0.9958176612854004],"type":"VEC3"},{"bufferView":14,"componentType":5126,"count":896,"max":[0.58984375,1],"min":[0,0.5],"type":"VEC2"},{"bufferView":15,"componentType":5123,"count":1344,"max":[895],"min":[0],"type":"SCALAR"}],"materials":[{"pbrMetallicRoughness":{"metallicFactor":0,"roughnessFactor":1,"baseColorTexture":{"index":0}},"alphaMode":"MASK","alphaCutoff":0.05,"doubleSided":true},{"pbrMetallicRoughness":{"metallicFactor":0,"roughnessFactor":1,"baseColorTexture":{"index":1}},"alphaMode":"MASK","alphaCutoff":0.05,"doubleSided":true},{"pbrMetallicRoughness":{"metallicFactor":0,"roughnessFactor":1,"baseColorTexture":{"index":2}},"alphaMode":"MASK","alphaCutoff":0.05,"doubleSided":true},{"pbrMetallicRoughness":{"metallicFactor":0,"roughnessFactor":1,"baseColorTexture":{"index":3}},"alphaMode":"MASK","alphaCutoff":0.05,"doubleSided":true}],"textures":[{"sampler":0,"source":0,"name":"rocket.png"},{"sampler":1,"source":1,"name":"surface 1.png"},{"sampler":2,"source":2,"name":"surface 2.png"},{"sampler":3,"source":3,"name":"surface 3.png"}],"samplers":[{"magFilter":9728,"minFilter":9728,"wrapS":33071,"wrapT":33071},{"magFilter":9728,"minFilter":9728,"wrapS":33071,"wrapT":33071},{"magFilter":9728,"minFilter":9728,"wrapS":33071,"wrapT":33071},{"magFilter":9728,"minFilter":9728,"wrapS":33071,"wrapT":33071}],"images":[{"mimeType":"image/png","uri":"data:image/png;base64,"},{"mimeType":"image/png","uri":"data:image/png;base64,"},{"mimeType":"image/png","uri":"data:image/png;base64,"},{"mimeType":"image/png","uri":"data:image/png;base64,"}],"meshes":[{"primitives":[{"mode":4,"attributes":{"POSITION":0,"NORMAL":1,"TEXCOORD_0":2},"indices":3,"material":0}]},{"primitives":[{"mode":4,"attributes":{"POSITION":4,"NORMAL":5,"TEXCOORD_0":6},"indices":7,"material":1}]},{"primitives":[{"mode":4,"attributes":{"POSITION":8,"NORMAL":9,"TEXCOORD_0":10},"indices":11,"material":2}]},{"primitives":[{"mode":4,"attributes":{"POSITION":12,"NORMAL":13,"TEXCOORD_0":14},"indices":15,"material":3}]}]}